General
Complete name                    : Harley Davidson and the Marlboro Man.mkv
Format                           : Matroska
File size                        : 1.45 GiB
Duration                         : 1h 34mn
Overall bit rate                 : 2 196 Kbps


Video
ID                               : 1
Format                           : AVC
Duration                         : 1h 34mn
Bit rate                         : 1 705 Kbps
Width                            : 716 pixels
Height                           : 554 pixels
Display aspect ratio             : 16:9
Frame rate                       : 25.000 fps
Resolution                       : 8 bits
Colorimetry                      : 4:2:0
Scan type                        : Progressive
Bits/(Pixel*Frame)               : 0.172
Stream size                      : 1.12 GiB (78%)
Writing library                  : x264 core 79


Audio #1
ID                               : 2
Format                           : AC-3
Format/Info                      : Audio Coding 3
Format profile                   : Dolby Digital
Codec ID                         : A_AC3
Duration                         : 1h 34mn
Bit rate mode                    : Constant
Bit rate                         : 224 Kbps
Channel(s)                       : 2 channels
Channel positions                : L R
Sampling rate                    : 48.0 KHz
Stream size                      : 151 MiB (10%)
Language                         : English

Audio #2
ID                               : 3
Format                           : AC-3
Format/Info                      : Audio Coding 3
Format profile                   : Dolby Digital
Codec ID                         : A_AC3
Duration                         : 1h 34mn
Bit rate mode                    : Constant
Bit rate                         : 224 Kbps
Channel(s)                       : 2 channels
Channel positions                : L R
Sampling rate                    : 48.0 KHz
Stream size                      : 151 MiB (10%)
Language                         : Spanish

Text #1
Language                         : English

Text #2
Language                         : German

Text #3
Language                         : French

Text #4
Language                         : Italian

Text #5
Language                         : Spanish

Text #6
Language                         : Dutch

Text #7
Language                         : Swedish

Text #8
Language                         : Finnish

Text #9
Language                         : Norwegian

Text #10
Language                         : Danish

Text #11
Language                         : Portuguese

Text #12
Language                         : Greek

Text #13
Language                         : Hungarian

